<?xml version="1.0" encoding="UTF-8" standalone="no"?>
<svg width="32" height="32" viewBox="0 0 32 32" fill="none" xmlns="http://www.w3.org/2000/svg">
  <!-- Background -->
  <rect width="32" height="32" rx="6" fill="#4A6FA5"/>

  <!-- D for Debugex -->
  <path d="M9 8H15C18.3137 8 21 10.6863 21 14V18C21 21.3137 18.3137 24 15 24H9V8Z" fill="white"/>
  <path d="M9 8H15C18.3137 8 21 10.6863 21 14V18C21 21.3137 18.3137 24 15 24H9V8Z" fill="white"/>

  <!-- Inner D cutout -->
  <path d="M12 12H15C16.6569 12 18 13.3431 18 15V17C18 18.6569 16.6569 20 15 20H12V12Z" fill="#4A6FA5"/>

  <!-- Regex symbols -->
  <path d="M23 10L27 10" stroke="white" stroke-width="2" stroke-linecap="round"/>
  <path d="M23 16L27 16" stroke="white" stroke-width="2" stroke-linecap="round"/>
  <path d="M23 22L27 22" stroke="white" stroke-width="2" stroke-linecap="round"/>
</svg>
